
<svg version="1.0" id="Layer_1" xmlns="http://www.w3.org/2000/svg" xmlns:xlink="http://www.w3.org/1999/xlink" x="0px" y="0px"
	 width="140.7px" height="121.8px" viewBox="0 0 140.7 121.8" style="enable-background:new 0 0 140.7 121.8;" xml:space="preserve"
	>
<style type="text/css">
	.st0{fill:#00ff00;}
</style>
<g>
	<g>
		<g>
			<path class="st0" d="M66.1,77.7c-1,0.9-2.1,1.5-3.4,1.6c-1.2,0.2-2.7,0.3-4.2,0.3h-4.2l0,14l-3.8,0l0-33l7.7,0l2.1,0
				c2.9,0,5,0.8,6.5,2.4c1.5,1.6,2.2,4,2.2,7.1C69.1,73.4,68.1,76,66.1,77.7z M64.8,67.4c-0.2-0.7-0.6-1.2-1.1-1.7
				c-0.5-0.4-1.1-0.7-1.8-0.9c-0.7-0.2-1.6-0.3-2.5-0.3h-5.1l0,11.2h4.8c1,0,1.8-0.1,2.6-0.3c0.7-0.2,1.4-0.5,1.9-0.9
				c0.5-0.4,0.9-1,1.1-1.8c0.3-0.7,0.4-1.7,0.4-2.8C65.1,69,65,68.1,64.8,67.4z"/>
			<path class="st0" d="M85.4,64.6l0,29l-3.8,0l0-29l-8.6,0l0-4l21.1,0l0,4L85.4,64.6z"/>
		</g>
		<path class="st0" d="M140.7,121.8H90.9v-2h46.4L114,79.7l1.7-1L140.7,121.8z M49.8,121.8H0l24.9-43.2l1.7,1L3.5,119.8h46.4V121.8z
			 M90,38L70.3,4L50.7,38L49,37L70.3,0l21.4,37L90,38z"/>
	</g>
</g>
</svg>
