<?xml version="1.0" encoding="utf-8"?>
<svg version="1.0" id="Layer_1" xmlns="http://www.w3.org/2000/svg" xmlns:xlink="http://www.w3.org/1999/xlink" x="0px" y="0px"
	 width="600px" height="500px" viewBox="0 0 600 500" style="enable-background:new 0 0 600 500;" xml:space="preserve">
<polyline class="st1" points="0,372.1 3.5,372.1 6.1,367.1 5.4,353.5 9.8,323.9 9.2,318.9 12.1,315.1 12.1,313.1 12.9,311.5 
	13.1,304.1 13.5,295.4 15.3,295.4 18.1,267.1 19.1,266.1 21.1,249.1 28.1,249.1 29.1,246.1 32.1,243.1 78.4,226.8 101.3,210.7 
	112.1,210.7 114.8,205.2 119.2,205.2 126.6,220 128.5,226.8 128.5,228.7 134,234.9 134.1,244.7 137.7,246 139,256.5 137.1,257.7 
	142.2,265.1 140.9,276.9 142.2,278.1 149.9,278.1 156.1,283.7 155.1,288 156.1,289.9 161.8,296.7 164.3,296.7 171.7,302.9 
	171.7,305.3 176.1,306.6 177.3,305.3 184.7,310.9 185.3,312.1 194.6,315.8 202,315.8 206.3,320.8 206.3,322.6 210.1,323.3 
	212.5,322.6 219.9,326.3 219.9,328.2 226.1,330.7 229.2,329.4 239.7,333.1 239.7,334.4 241.6,335.6 241.6,339.9 255.5,339.9 
	285.5,344.3 303.3,348 311.7,348 320.6,354.8 324.3,361 326.8,361.6 328.1,364 327.4,365.9 329.9,372 329.9,378.3 324.9,386.9 
	307.6,395 265.7,406.7 198.9,412.9 118,409.2 58.6,408.6 16.6,403.6 3.7,398.7 2.5,382.6 3.5,372.1 50.6,380.1 119.8,383.8 
	172.4,388.8 204.5,392.5 259.5,388.2 312.6,373.9 327.4,365.9 328.1,364 326.8,361.6 324.3,361 310.7,368.4 257,382.6 219.9,385.7 
	203.9,386.3 173,382.6 110,376.4 58.6,373.9 6.1,367.1 58.6,372.7 82.1,373.9 72.8,344.3 67.9,339.9 34.6,326.3 20.3,319.5 
	12.1,313.1 20.3,318.3 34.5,325.1 74.1,341.2 121,357.9 140.2,362.2 153.2,361 162.5,354.2 164.9,345.5 162.5,335.6 156.3,325.7 
	140.8,310.9 142.7,325.7 140.2,333.1 136.5,338.7 127.2,341.8 112.4,339.9 69.7,327.6 32.6,315.2 17.2,307.8 13.1,304.1 13.5,295.4 
	21.6,302.2 40.7,307.2 55.5,309.7 76.5,307.2 93.9,302.9 112.4,294.2 112.4,296.7 93.8,305.3 77.8,309.1 54.3,311.5 40.1,309 
	20.3,304.1 16.1,300.1 16.1,300.1 20.3,304.1 40.1,309 54.3,311.5 77.8,309.1 93.8,305.3 112.4,296.7 121.7,304.7 101.9,312.7 
	89.5,315.8 74.7,318.3 75.9,327.6 90.8,374.6 92.6,374.6 77.2,327.6 75.9,319.5 89.5,317.1 102.5,314 122.3,305.3 112.4,296.7 
	113.6,275 100,279.4 77.8,289.9 69.1,298.5 66.6,306.6 56.1,307.8 41.3,305.3 22.8,300.4 16.6,295.4 19,268.9 27.7,263.3 
	51.8,253.4 90.1,239.8 111.8,234.2 122.3,233.6 127.9,234.9 134.1,244.7 122.9,239.2 118.6,241 118.6,244.1 120.4,245.4 
	127.3,244.7 134.1,244.7 128.5,244.7 129.7,253.4 121,257.7 120.4,260.8 126.6,263.9 135.9,258.3 129.7,263.3 132.2,264.5 
	135.3,272.6 123,281.8 115.8,271.9 121.7,271.9 132.2,264.5 121.7,271.9 123,281.8 127.2,288 142.7,281.2 146.1,282.1 139.1,275 
	134.7,275 126,281 127.2,288 142.7,281.2 146.1,282.1 146.4,294.8 150.1,299.1 154.4,294.2 156.1,289.9 161.8,296.7 162.5,303.5 
	164.3,309 168,309 171.7,305.3 176.1,306.6 175.4,314.6 177.9,319.5 181.6,322 183.5,318.9 185.3,312.1 194.6,315.8 194,321.4 
	195.8,325.7 199.5,327.6 206.3,322.6 210.1,323.3 209.2,336.9 215,339.3 215.6,335.6 216.9,331.9 219.9,328.2 216.9,331.9 
	224.9,335 226.1,330.7 224.9,335 226.2,339.5 230.2,339.5 236.1,331.9 239.7,333.1 239.2,339.9 229.8,352.9 229.2,357.9 
	225.5,364.7 226.7,368.4 232.3,369 239.1,365.9 248.4,359.1 271.9,354.8 284.9,354.2 304.6,349.8 303.3,348 304.6,348 307,349.8 
	305.1,351.1 285.5,356 272.5,356.6 249.6,360.3 239.7,367.8 232.9,370.8 224.9,370.2 223,364 226.7,357.3 227.4,352.3 236.6,340.6 
	223.7,351.7 213.1,365.3 203.9,386.3 173,382.6 186.6,352.9 189.1,339.3 189,318.9 192.8,316.5 186,314 186.3,328.2 181,326.3 
	172.3,323.9 155.7,309 144.5,301.6 130.3,302.9 122.3,305.3 112.4,296.7 114.3,269.5 114.2,254.6 98.2,260.2 75.9,282.5 71,284.3 
	45,282.5 39.4,281.2 51.2,276.9 48.7,272.6 55.5,268.2 60.5,260.8 69.7,258.3 77.8,260.2 85.8,259 86.4,263.3 77.8,266.4 
	72.3,264.5 66.1,264.5 61.1,268.2 57.3,273.4 57.4,273.2 61.1,268.2 66.1,264.5 72.3,264.5 77.8,266.4 76,268.2 55,275.7 
	114.2,254.6 110.5,225 122.3,225.6 128.5,228.7 122.3,225.6 106.9,222.5 90.2,226.2 67.9,233 33.1,244.1 79.1,228.1 101.9,212 
	113.7,212 118.6,212 121.7,217.5 122.3,225.6 110.5,225 114.2,254.6 115.8,271.9 127.2,288 144.5,301.6 155.7,309 172.3,323.9 
	181,326.3 215,339.3 241.3,339.9 255.2,339.9 285.2,344.3 303,348 311.7,348 320.6,354.8 324.3,361 326.8,361.6 328.1,364 
	327.4,365.9 329.9,372 329.9,372 334.6,372 343,372 349,357 356,351 362,351 404,335 407,332 412,325 412,321 420,313 426,312 
	428,308 441,303 441,301 449,299 451,296 452,295.5 458,292 458.8,291 462,287 462,282 465,278 465,272 468,269 470,265 472,262 
	481,262 489,239 481,262 480,262 477,274 469,270 479,275 489,271 499,269 499,267 495,261 491,258 485,261 479,268 479,267 
	483,260 491,255 491,254 493,253 493,251 489,254 489,255 488,255 487,256 487,255 485,255 487,254 494,248 496,247 496,245 
	498,244 499,244 499,246 502,243 506,239 506,237 507,236 509,236 510,237 509,238 507,239 504,242 498,249 498,251 495,255 
	498,259 500,266 503,269 509,269 522,236 509,235 497,236 489,239 491,237 493,231 501,226 514,226 536,234 547,246 547,260 
	543,267 550,272 551,264 561,258 573,258 588,263 582,284 586,306 587,318 592,334 592,358 594.1,361 595.1,369 593.1,371 
	593.1,378 594.1,378 594.1,390 579,397 545,400 544,398 542,400 504,404 485,408 478,408 478,406 476,408 463,409 462,403 460,410 
	446,410 446,403 442,410 417,410 382,408 360,406 344,402 338,396 338,385 339,383 338,382 338,379 340,377 340,374 343,372 
	384,376 415,379 450,381 458,385 471,395 477,404 523,398 567,394 576,392 586,385 594.1,382 594.1,378 591,379 582,384 575,389 
	563,392 543,394 527,394 474.5,400.2 471,395 535,379 553,376 566,375 563,378 548,380 531,383 529,385 529,388 530,390 551,388 
	562,386 564,384 564,379 563,378 566,375 573,374 593.1,371 595.1,369 594.1,361 592,358 588,353 562,358 547,363 541,363 532,360 
	523,360 517,362.7 496,372 478,382 462,387 478,382 496,372 517,362.7 488,346 484,346 470,365 462,366 446,358 409,356 362,351 
	404,335 407,332 421,333 436,338 446,339 453,339 457,337 478,324 484,324 505,335 515,336 544,329 546,337 548,338 584,326 
	586,324 574,311 553,290 536,278 523.9,292.7 536,278 529,266 541,269 559,282 570,288 577,285 582,284 581,282 580,271 579,268 
	575,266 565,268 553,267 550,272 543,267 529,266 543,267 560,279 570,284 576,282 577,271 575,266 579,268 580,271 581,282 
	582,284 577,285 570,288 559,282 541,269 529,266 527,262 522,263 514,269 518,271 519,274 516,277 510,277 507,284 508,287 
	519,291 523.9,292.7 537,312 544,329 553,327 569,322 569,318 554,303 545,295 543,295 540,299 540,302 549,317 540,302 551,308 
	551,312 549,317 553,327 544,329 515,336 505,335 487,320 486,313 519,291 523.9,292.7 519,291 508,287 507,284 510,277 516,277 
	519,274 518,271 514,269 499,269 489,271 479,275 468,278 462,282 462,287 495,278 510,277 495,278 497,282 501,291 499,292 
	488,286 481,282 462,287 458,292 462,287 481,282 488,286 493,297 489,298 480,291 466,290 451,296 466,290 476,292 483,302 
	480,304 470,296 451,296 465,296 474,306 474,309 470,311 459,303 441,301 449,299 459,303 464,309 463,312 459,313 453,307 
	433,307 428,308 433,308 452,308 455,312 455,314 452,316 448,313 426,312 447,314 450,318 446,321 442,319 419,319 413,324 
	413,324 416,322 419,320 439,320 438,326 438.6,338.3 441.9,338.6 440,326 441,320 442,322 455,331 457,337 475,326 471,319 
	464,309 471,319 475,326 457,337 453,339 462,350 467,360 470,365 462,366 446,358 409,356 362,351 356,351 349,357 343,372 
	340,374 340,377 338,379 338,382 340,383 363,388 393,391 412,393 420,399 422,405 417,410 417,410 422,405 420,399 412,393 
	393,391 363,388 340,383 338,382 338,379 340,377 364,381 410,386 440,388 410,386 364,381 340,377 338,379 338,382 339,383 
	338,385 338,396 344,402 360,406 382,408 417,410 442,410 446,403 446,410 460,410 462,403 463,409 476,408 478,406 478,408 
	485,408 504,404 542,400 544,398 545,400 579,397 594.1,390 594.1,378 593.1,378 593.1,372.1 600,372.1 "/>
</svg>
